<svg xmlns="http://www.w3.org/2000/svg" width="1024" height="1024" viewBox="0 0 1024 1024">
  <defs>
    <linearGradient id="bg" x1="0" y1="0" x2="1" y2="1">
      <stop offset="0" stop-color="#1E1B4B"/><stop offset="0.5" stop-color="#111827"/><stop offset="1" stop-color="#0B1020"/>
    </linearGradient>
    <radialGradient id="glow" cx="0.55" cy="0.55" r="0.5">
      <stop offset="0" stop-color="#F97316" stop-opacity="0.55"/><stop offset="1" stop-color="#F97316" stop-opacity="0"/>
    </radialGradient>
    <linearGradient id="sun" x1="0" y1="0" x2="1" y2="1">
      <stop offset="0" stop-color="#FDE047"/><stop offset="1" stop-color="#F97316"/>
    </linearGradient>
    <filter id="sh" x="-30%" y="-30%" width="160%" height="160%">
      <feDropShadow dx="0" dy="16" stdDeviation="18" flood-color="#000" flood-opacity="0.45"/>
    </filter>
    <path id="heart" d="M0,-30 C-8,-58 -60,-58 -60,-18 C-60,14 -24,38 0,62 C24,38 60,14 60,-18 C60,-58 8,-58 0,-30 Z"/>
  </defs>
  <rect width="1024" height="1024" fill="url(#bg)"/>
  <rect width="1024" height="1024" fill="url(#glow)"/>
  <g transform="translate(355 480) rotate(-12)" filter="url(#sh)">
    <rect x="-160" y="-220" width="320" height="440" rx="50" fill="#FFFFFF"/>
    <use href="#heart" transform="scale(1.45)" fill="#EF4444"/>
  </g>
  <g transform="translate(675 385) rotate(14)" filter="url(#sh)">
    <rect x="-150" y="-150" width="300" height="300" rx="68" fill="url(#sun)"/>
    <g fill="#0B1020"><circle cx="-64" cy="-64" r="27"/><circle cx="64" cy="-64" r="27"/><circle cx="0" cy="0" r="27"/><circle cx="-64" cy="64" r="27"/><circle cx="64" cy="64" r="27"/></g>
  </g>
  <g transform="translate(640 725)" filter="url(#sh)">
    <circle r="170" fill="#FFFFFF"/><circle r="118" fill="#0B1020"/><circle r="68" fill="#FDE047"/><circle r="26" fill="#EF4444"/>
  </g>
</svg>